<svg width="18" height="18" viewBox="0 0 18 18" fill="none" xmlns="http://www.w3.org/2000/svg">
<g clip-path="url(#clip0_223_292)">
<path d="M9.84375 0.83885C9.84375 0.00213175 8.76621 -0.31322 8.2916 0.380413C3.9375 6.74475 10.125 7.03127 10.125 10.125C10.125 11.3776 9.1016 12.3912 7.84512 12.3747C6.60867 12.3589 5.625 11.3281 5.625 10.0916V7.08541C5.625 6.32252 4.69441 5.95233 4.16848 6.50533C3.22734 7.49393 2.25 9.18741 2.25 11.25C2.25 14.972 5.27801 18 9 18C12.722 18 15.75 14.972 15.75 11.25C15.75 5.26327 9.84375 4.46487 9.84375 0.83885Z" fill="#5142FB"/>
</g>
<defs>
<clipPath id="clip0_223_292">
<rect width="18" height="18" fill="white"/>
</clipPath>
</defs>
</svg>
