<svg width="11" height="11" viewBox="0 0 11 11" fill="none" xmlns="http://www.w3.org/2000/svg">
<g clip-path="url(#clip0_271_308)">
<path d="M9.55167 2.1129C9.31757 1.87869 9.03962 1.6929 8.7337 1.56615C8.42779 1.43939 8.09989 1.37415 7.76875 1.37415C7.43761 1.37415 7.10971 1.43939 6.8038 1.56615C6.49788 1.6929 6.21993 1.87869 5.98583 2.1129L5.5 2.59873L5.01417 2.1129C4.54131 1.64004 3.89997 1.37439 3.23125 1.37439C2.56253 1.37439 1.92119 1.64004 1.44833 2.1129C0.975473 2.58576 0.709824 3.22709 0.709824 3.89582C0.709824 4.56454 0.975473 5.20587 1.44833 5.67873L1.93417 6.16457L5.5 9.7304L9.06583 6.16457L9.55167 5.67873C9.78587 5.44464 9.97166 5.16669 10.0984 4.86077C10.2252 4.55485 10.2904 4.22696 10.2904 3.89582C10.2904 3.56468 10.2252 3.23678 10.0984 2.93086C9.97166 2.62494 9.78587 2.347 9.55167 2.1129V2.1129Z" stroke="white" stroke-linecap="round" stroke-linejoin="round"/>
</g>
<defs>
<clipPath id="clip0_271_308">
<rect width="11" height="11" fill="white"/>
</clipPath>
</defs>
</svg>
