<svg width="18" height="18" viewBox="0 0 18 18" fill="none" xmlns="http://www.w3.org/2000/svg">
<path d="M12.2143 5.14286V4.21429C12.2143 2.16621 10.5481 0.5 8.5 0.5C6.45192 0.5 4.78571 2.16621 4.78571 4.21429V5.14286H2V13.0357C2 14.3178 3.03933 15.3571 4.32143 15.3571H12.6786C13.9607 15.3571 15 14.3178 15 13.0357V5.14286H12.2143ZM6.64286 4.21429C6.64286 3.19025 7.47596 2.35714 8.5 2.35714C9.52404 2.35714 10.3571 3.19025 10.3571 4.21429V5.14286H6.64286V4.21429ZM11.2857 7.69643C10.9011 7.69643 10.5893 7.38463 10.5893 7C10.5893 6.61537 10.9011 6.30357 11.2857 6.30357C11.6703 6.30357 11.9821 6.61537 11.9821 7C11.9821 7.38463 11.6703 7.69643 11.2857 7.69643ZM5.71429 7.69643C5.32965 7.69643 5.01786 7.38463 5.01786 7C5.01786 6.61537 5.32965 6.30357 5.71429 6.30357C6.09892 6.30357 6.41071 6.61537 6.41071 7C6.41071 7.38463 6.09892 7.69643 5.71429 7.69643Z" fill="#5142FB"/>
</svg>
