<svg width="699" height="637" viewBox="0 0 699 637" fill="none" xmlns="http://www.w3.org/2000/svg">
<g filter="url(#filter0_d_45_2163)">
<path fill-rule="evenodd" clip-rule="evenodd" d="M449.967 462.214C427.438 482.301 409.839 507.934 381.984 519.657C349.458 533.345 311.316 548.894 278.56 534.349C245.77 519.79 245.436 470.336 218.09 446.881C179.964 414.181 103.423 421.154 90.219 372.808C77.7914 327.305 145.349 300.692 166.922 259.536C185.79 223.543 173.664 167.306 208.64 146.895C244.721 125.839 291.096 172.063 332.065 163.164C379.758 152.805 414.18 68.2192 457.109 92.9274C503.074 119.383 449.195 203.161 478.599 247.504C504.68 286.837 592.729 264.978 601.773 311.092C610.547 355.825 541.406 374.216 509.652 405.827C489.916 425.474 470.747 443.686 449.967 462.214Z" stroke="#5142FB" stroke-opacity="0.5" stroke-width="4" shape-rendering="crispEdges"/>
</g>
<defs>
<filter id="filter0_d_45_2163" x="0.702293" y="0.426056" width="697.837" height="635.766" filterUnits="userSpaceOnUse" color-interpolation-filters="sRGB">
<feFlood flood-opacity="0" result="BackgroundImageFix"/>
<feColorMatrix in="SourceAlpha" type="matrix" values="0 0 0 0 0 0 0 0 0 0 0 0 0 0 0 0 0 0 127 0" result="hardAlpha"/>
<feMorphology radius="48" operator="dilate" in="SourceAlpha" result="effect1_dropShadow_45_2163"/>
<feOffset dx="4" dy="4"/>
<feGaussianBlur stdDeviation="21"/>
<feComposite in2="hardAlpha" operator="out"/>
<feColorMatrix type="matrix" values="0 0 0 0 0.584314 0 0 0 0 0.313726 0 0 0 0 0.898039 0 0 0 0.15 0"/>
<feBlend mode="normal" in2="BackgroundImageFix" result="effect1_dropShadow_45_2163"/>
<feBlend mode="normal" in="SourceGraphic" in2="effect1_dropShadow_45_2163" result="shape"/>
</filter>
</defs>
</svg>
